<svg xmlns="http://www.w3.org/2000/svg" version="1.1" xmlns:xlink="http://www.w3.org/1999/xlink" xmlns:svgjs="http://svgjs.dev/svgjs" width="2000" height="414" viewBox="0 0 2000 414"><g transform="matrix(1,0,0,1,0.3612228683610965,-2.0908882253724244)"><svg viewBox="0 0 396 82" data-background-color="#ffffff" preserveAspectRatio="xMidYMid meet" height="414" width="2000" xmlns="http://www.w3.org/2000/svg" xmlns:xlink="http://www.w3.org/1999/xlink"><g id="tight-bounds" transform="matrix(1,0,0,1,0.2400000000000091,0.414137281353959)"><svg viewBox="0 0 395.52 64.03455730303885" height="64.03455730303885" width="395.52"><g><svg viewBox="0 0 652.0257126700533 105.56274742370871" height="64.03455730303885" width="395.52"><g transform="matrix(1,0,0,1,256.50571267005336,27.208353434373038)"><svg viewBox="0 0 395.52 51.14604055496264" height="51.14604055496264" width="395.52"><g id="textblocktransform"><svg viewBox="0 0 395.52 51.14604055496264" height="51.14604055496264" width="395.52" id="textblock"><g><svg viewBox="0 0 395.52 51.14604055496264" height="51.14604055496264" width="395.52"><g transform="matrix(1,0,0,1,0,0)"><svg width="395.52" viewBox="4.05 -35.6 281.07 36.35" height="51.14604055496264" data-palette-color="#ffc800"><path d="M10.45 0L4.05 0 4.05-34.85 10.45-34.85 10.45 0ZM24.6 0L18.2 0 18.2-24.9 24-24.9 24.12-21.63Q25.1-23.13 26.85-24.31 28.6-25.5 31.45-25.5L31.45-25.5Q35.25-25.5 37.1-23.1 38.95-20.7 38.95-16.45L38.95-16.45 38.95 0 32.55 0 32.55-15.9Q32.55-17.98 31.67-19.26 30.8-20.55 29-20.55L29-20.55Q27.25-20.55 25.92-19.26 24.6-17.98 24.6-15.9L24.6-15.9 24.6 0ZM55.95 0.6L55.95 0.6Q51.97 0.6 49.47-1.19 46.97-2.98 45.78-5.93 44.6-8.88 44.6-12.35L44.6-12.35Q44.6-15.8 45.92-18.8 47.25-21.8 49.85-23.65 52.45-25.5 56.3-25.5L56.3-25.5Q58.45-25.5 60.2-25.05 61.95-24.6 63.6-23.25L63.6-23.25 61.55-17.95Q60.8-19.07 59.36-19.69 57.92-20.3 56.65-20.3L56.65-20.3Q51.2-20.3 51.2-12.4L51.2-12.4Q51.2-8.25 52.56-6.38 53.92-4.5 56.65-4.5L56.65-4.5Q58.45-4.5 59.82-5.19 61.2-5.88 61.9-6.65L61.9-6.65 63.8-2.2Q63.1-1.45 61.05-0.43 59 0.6 55.95 0.6ZM85.54 0L65.64 0 76.92-20.15 67.74-20.15 67.74-24.9 86.54-24.9 75.29-4.55 85.54-4.55 85.54 0ZM100.99 0.65L100.99 0.65Q96.79 0.65 94.22-1.11 91.64-2.88 90.47-5.79 89.29-8.7 89.29-12.15L89.29-12.15Q89.29-15.78 90.63-18.81 91.97-21.85 94.55-23.68 97.14-25.5 100.89-25.5L100.89-25.5Q106.49-25.5 108.72-22.26 110.94-19.03 110.94-13.1L110.94-13.1Q110.94-12.58 110.92-11.78 110.89-10.98 110.84-10.4L110.84-10.4 95.84-10.4Q95.99-7.45 97.5-5.78 99.02-4.1 102.04-4.1L102.04-4.1Q103.59-4.1 105.37-4.79 107.14-5.48 107.99-6.45L107.99-6.45 109.99-1.7Q108.99-1.03 106.83-0.19 104.67 0.65 100.99 0.65ZM95.79-14.3L95.79-14.3 104.59-14.3Q104.59-16.93 104.13-18.31 103.67-19.7 102.87-20.23 102.07-20.75 101.04-20.75L101.04-20.75Q98.49-20.75 97.22-18.86 95.94-16.98 95.79-14.3ZM138.04 0L131.59 0 131.59-29.2 123.54-29.2 123.54-34.85 146.09-34.85 146.09-29.2 138.04-29.2 138.04 0ZM154.43 0L148.18 0 148.18-24.9 153.83-24.9 154.13-20.5Q154.53-21.48 155.37-22.58 156.21-23.68 157.7-24.44 159.18-25.2 161.53-25.2L161.53-25.2Q162.26-25.2 162.81-25.1 163.36-25 163.83-24.8L163.83-24.8 162.43-18.25Q161.63-19.05 159.98-19.05L159.98-19.05Q158.06-19.05 156.83-18.26 155.61-17.48 155.02-16.5 154.43-15.53 154.43-15L154.43-15 154.43 0ZM172.53 0.7L172.53 0.7Q170.23 0.7 168.72-0.33 167.21-1.35 166.47-3.05 165.73-4.75 165.73-6.8L165.73-6.8Q165.73-7.95 166.32-9.33 166.91-10.7 168.41-11.95 169.91-13.2 172.63-14 175.36-14.8 179.63-14.8L179.63-14.8 179.63-15.95Q179.63-17.8 178.74-19.03 177.86-20.25 175.18-20.25L175.18-20.25Q173.23-20.25 171.37-19.59 169.51-18.93 168.63-17.95L168.63-17.95 166.63-22.75Q168.13-23.78 170.64-24.64 173.16-25.5 176.23-25.5L176.23-25.5Q179.93-25.5 181.98-24.38 184.03-23.25 184.86-21.19 185.68-19.13 185.68-16.35L185.68-16.35 185.68 0 180.33 0 179.88-3.55Q177.28 0.7 172.53 0.7ZM175.18-4.1L175.18-4.1Q176.31-4.1 177.59-5.01 178.88-5.93 179.63-7.35L179.63-7.35 179.63-10.9Q179.38-10.95 179.09-10.95 178.81-10.95 178.43-10.95L178.43-10.95Q177.06-10.95 175.54-10.64 174.03-10.33 172.98-9.55 171.93-8.78 171.93-7.4L171.93-7.4Q171.93-5.6 172.73-4.85 173.53-4.1 175.18-4.1ZM202.18 0.6L202.18 0.6Q198.2 0.6 195.7-1.19 193.2-2.98 192.02-5.93 190.83-8.88 190.83-12.35L190.83-12.35Q190.83-15.8 192.15-18.8 193.48-21.8 196.08-23.65 198.68-25.5 202.53-25.5L202.53-25.5Q204.68-25.5 206.43-25.05 208.18-24.6 209.83-23.25L209.83-23.25 207.78-17.95Q207.03-19.07 205.59-19.69 204.15-20.3 202.88-20.3L202.88-20.3Q197.43-20.3 197.43-12.4L197.43-12.4Q197.43-8.25 198.79-6.38 200.15-4.5 202.88-4.5L202.88-4.5Q204.68-4.5 206.05-5.19 207.43-5.88 208.13-6.65L208.13-6.65 210.03-2.2Q209.33-1.45 207.28-0.43 205.23 0.6 202.18 0.6ZM223.13 0.75L223.13 0.75Q218.9 0.75 217.41-1.45 215.93-3.65 215.93-8.1L215.93-8.1 215.93-19.65 212.68-19.65 212.68-24.9 216.18-24.9 216.53-30.15 221.98-32.5 221.98-24.9 228.13-24.9 228.13-19.65 221.98-19.65 221.98-8.25Q221.98-6.08 222.59-5.24 223.2-4.4 224.28-4.4L224.28-4.4Q225.38-4.4 226.6-4.98 227.83-5.55 228.53-6.15L228.53-6.15 229.73-1.1Q228.95-0.55 227.71-0.14 226.48 0.28 225.21 0.51 223.95 0.75 223.13 0.75ZM239.37 0.7L239.37 0.7Q237.07 0.7 235.56-0.33 234.05-1.35 233.31-3.05 232.57-4.75 232.57-6.8L232.57-6.8Q232.57-7.95 233.16-9.33 233.75-10.7 235.25-11.95 236.75-13.2 239.47-14 242.2-14.8 246.47-14.8L246.47-14.8 246.47-15.95Q246.47-17.8 245.59-19.03 244.7-20.25 242.02-20.25L242.02-20.25Q240.07-20.25 238.21-19.59 236.35-18.93 235.47-17.95L235.47-17.95 233.47-22.75Q234.97-23.78 237.49-24.64 240-25.5 243.07-25.5L243.07-25.5Q246.77-25.5 248.82-24.38 250.87-23.25 251.7-21.19 252.52-19.13 252.52-16.35L252.52-16.35 252.52 0 247.17 0 246.72-3.55Q244.12 0.7 239.37 0.7ZM242.02-4.1L242.02-4.1Q243.15-4.1 244.44-5.01 245.72-5.93 246.47-7.35L246.47-7.35 246.47-10.9Q246.22-10.95 245.94-10.95 245.65-10.95 245.27-10.95L245.27-10.95Q243.9-10.95 242.39-10.64 240.87-10.33 239.82-9.55 238.77-8.78 238.77-7.4L238.77-7.4Q238.77-5.6 239.57-4.85 240.37-4.1 242.02-4.1ZM265.22 0L258.97 0 258.97-24.9 264.62-24.9 264.92-20.5Q265.32-21.48 266.16-22.58 267-23.68 268.48-24.44 269.97-25.2 272.32-25.2L272.32-25.2Q273.05-25.2 273.6-25.1 274.14-25 274.62-24.8L274.62-24.8 273.22-18.25Q272.42-19.05 270.77-19.05L270.77-19.05Q268.85-19.05 267.62-18.26 266.39-17.48 265.81-16.5 265.22-15.53 265.22-15L265.22-15 265.22 0ZM285.12-28.95L278.12-28.95 278.12-35.6 285.12-35.6 285.12-28.95ZM284.87 0L278.37 0 278.37-24.9 284.87-24.9 284.87 0Z" opacity="1" transform="matrix(1,0,0,1,0,0)" fill="#ffc800" class="wordmark-text-0" data-fill-palette-color="primary" id="text-0"></path></svg></g></svg></g></svg></g></svg></g><g><svg viewBox="0 0 244.43135999999998 105.56274742370871" height="105.56274742370871" width="244.43135999999998"><g><svg xmlns="http://www.w3.org/2000/svg" xmlns:xlink="http://www.w3.org/1999/xlink" version="1.1" x="0" y="0" viewBox="0.8509994937117056 29.982999845123445 97.77000050628828 42.224000509023" enable-background="new 0 0 100 100" xml:space="preserve" height="105.56274742370871" width="244.43135999999998" class="icon-icon-0" data-fill-palette-color="accent" id="icon-0"><g fill="#ffc800" data-fill-palette-color="accent"><path fill="#ffc800" d="M3.027 51.914L10.458 51.921V51.735C10.458 50.822 11.199 50.083 12.11 50.083H24.329C25.24 50.083 25.979 50.821 25.979 51.735V51.94L43.826 51.974A7.746 7.746 0 0 1 51.562 44.602 7.75 7.75 0 0 1 59.303 51.991L63.302 51.995A0.99 0.99 0 0 0 64.295 51.004V48.393A0.99 0.99 0 0 0 63.302 47.402L61.55 47.398V42.257A2.64 2.64 0 0 0 58.909 39.615H45.011L39.552 31.636C38.657 30.448 37.805 29.984 36.435 29.984L11.479 29.983A3.303 3.303 0 0 0 8.175 33.284V38.313H9.794C10.673 38.313 10.673 39.633 9.794 39.633H8.036A3.305 3.305 0 0 0 4.78 42.937L4.774 47.315 3.027 47.318A0.99 0.99 0 0 0 2.038 48.31V50.923C2.038 51.471 2.479 51.914 3.027 51.914M28.311 33.286A0.99 0.99 0 0 1 29.3 32.296H36.205C36.754 32.296 36.958 32.346 37.457 33.008L39.01 35.195C39.395 35.74 39.265 36.184 38.718 36.184H29.3A0.99 0.99 0 0 1 28.311 35.195zM27.471 37.992C27.814 37.992 28.069 38.126 28.231 38.323V38.322H30.615C31.497 38.322 31.497 39.644 30.615 39.644H28.231A0.97 0.97 0 0 1 27.469 39.973C26.147 39.974 26.147 37.992 27.471 37.992" data-fill-palette-color="accent"></path><path fill="#ffc800" d="M47.172 38.333H56.062C56.794 38.333 57.39 37.741 57.39 37.008V36.221C57.39 35.488 56.794 34.896 56.062 34.896H47.172C46.442 34.896 45.846 35.488 45.846 36.221V37.008C45.846 37.74 46.439 38.333 47.172 38.333" data-fill-palette-color="accent"></path><path fill="#ffc800" d="M51.562 46.584A5.769 5.769 0 0 0 48.042 56.925H55.082A5.77 5.77 0 0 0 51.562 46.584M51.564 55.178A2.823 2.823 0 1 1 51.564 49.532 2.823 2.823 0 0 1 51.564 55.178" data-fill-palette-color="accent"></path><path fill="#ffc800" d="M85.89 60.667A5.77 5.77 0 0 0 80.121 66.436 5.769 5.769 0 1 0 91.659 66.436 5.77 5.77 0 0 0 85.89 60.667M85.888 69.256C84.328 69.256 83.068 67.997 83.068 66.436S84.329 63.617 85.888 63.617A2.82 2.82 0 1 1 85.888 69.256" data-fill-palette-color="accent"></path><path fill="#ffc800" d="M12.535 51.347A6 6 0 0 0 12.449 52.355C12.449 54.216 13.329 55.87 14.699 56.926H21.739A5.75 5.75 0 0 0 23.987 52.355C23.987 52.009 23.962 51.673 23.901 51.347H20.856A2.821 2.821 0 1 1 15.397 52.355C15.397 52 15.464 51.66 15.583 51.347z" data-fill-palette-color="accent"></path><path fill="#ffc800" d="M97.631 61.484L95.88 61.479V58.838A2.15 2.15 0 0 0 97.786 59.991S97.953 59.986 97.982 59.978A0.74 0.74 0 0 0 98.609 59.235V56.442A0.75 0.75 0 0 0 97.982 55.693 2.15 2.15 0 0 0 95.88 56.835V56.337A2.65 2.65 0 0 0 93.234 53.691H88.915C87.997 53.691 87.997 52.371 88.915 52.371H92.236L84.726 41.421C83.83 40.234 82.977 39.769 81.61 39.769H74.723L74.553 38.53A0.274 0.274 0 0 0 74.296 38.301L74.079 36.682C73.917 35.608 73.38 35.065 72.503 35.065 71.621 35.065 71.088 35.609 70.926 36.682L70.709 38.301H70.67A0.276 0.276 0 0 0 70.408 38.53L70.233 39.769H67.636C66.723 39.769 65.984 40.509 65.984 41.421V57.039A1.65 1.65 0 0 1 64.373 58.323H5.249A1.65 1.65 0 0 0 3.601 59.974V61.395L1.84 61.401A0.99 0.99 0 0 0 0.851 62.392V65.004C0.851 65.551 1.295 65.995 1.84 65.995L9.273 66.006V65.817C9.273 64.905 10.012 64.165 10.925 64.165H23.144C24.056 64.165 24.796 64.903 24.796 65.817V66.023L78.151 66.056A7.746 7.746 0 0 1 93.625 66.075L97.63 66.079A0.99 0.99 0 0 0 98.621 65.09V62.473A0.99 0.99 0 0 0 97.631 61.484M71.812 36.804C71.927 36.046 72.184 35.957 72.504 35.958 72.819 35.958 73.082 36.049 73.198 36.819L73.377 38.171H71.626zM74.664 49.277A0.99 0.99 0 0 1 73.671 50.268H71.217A0.99 0.99 0 0 1 70.228 49.277V43.073C70.228 42.528 70.672 42.086 71.217 42.086H73.671A0.99 0.99 0 0 1 74.664 43.073zM80.588 53.718H78.197C78.035 53.917 77.78 54.05 77.437 54.05 76.114 54.05 76.114 52.07 77.441 52.07 77.78 52.07 78.037 52.202 78.199 52.399V52.397H80.588C81.466 52.396 81.466 53.718 80.588 53.718M86.929 50.269H77.511A0.99 0.99 0 0 1 76.523 49.278V43.074C76.523 42.529 76.964 42.087 77.511 42.087L81.382 42.085C81.931 42.085 82.135 42.136 82.636 42.796L87.22 49.278C87.604 49.825 87.477 50.269 86.929 50.269" data-fill-palette-color="accent"></path><path fill="#ffc800" d="M19.669 65.428A2.82 2.82 0 0 1 17.033 69.256 2.82 2.82 0 0 1 14.211 66.436C14.211 66.08 14.278 65.742 14.4 65.428H11.35A5.772 5.772 0 0 0 17.033 72.207 5.773 5.773 0 0 0 22.808 66.436C22.808 66.093 22.772 65.754 22.717 65.428z" data-fill-palette-color="accent"></path></g></svg></g></svg></g></svg></g><defs></defs></svg><rect width="395.52" height="64.03455730303885" fill="none" stroke="none" visibility="hidden"></rect></g></svg></g></svg>